<!DOCTYPE svg PUBLIC "-//W3C//DTD SVG 1.1//EN" "http://www.w3.org/Graphics/SVG/1.1/DTD/svg11.dtd">
<!-- Uploaded to: SVG Repo, www.svgrepo.com, Transformed by: SVG Repo Mixer Tools -->
<svg fill="#ffffff" height="800px" width="800px" version="1.1" id="Capa_1" xmlns="http://www.w3.org/2000/svg" xmlns:xlink="http://www.w3.org/1999/xlink" viewBox="0 0 378.213 378.213" xml:space="preserve">
<g id="SVGRepo_bgCarrier" stroke-width="0"/>
<g id="SVGRepo_tracerCarrier" stroke-linecap="round" stroke-linejoin="round"/>
<g id="SVGRepo_iconCarrier"> <g> <path d="M354.587,197.054c0-15.665-4.508-28.111-13.398-36.991c-12.313-12.299-29.131-14.209-43.251-14.496 c-1.6-15.094-13.091-29.898-33.128-29.898H56.814c-21.557,0-33.188,17.041-33.188,33.075v77.266c0,39.303,11.101,72.6,32.103,96.29 c4.637,5.231,9.696,9.96,15.162,14.196c-1.813,3.798-2.83,8.046-2.83,12.528c0,16.095,13.094,29.188,29.188,29.188h127.269 c16.094,0,29.188-13.094,29.188-29.188c0-4.724-1.135-9.185-3.136-13.137c5.225-4.063,10.07-8.56,14.506-13.489 c8.205-9.117,14.939-19.574,20.142-31.169C315.045,281.595,354.587,246.944,354.587,197.054z M263.14,150.67v54.234H58.625V150.67 H263.14z M297.282,244.107c0.569-5.88,0.858-11.917,0.858-18.097v-45.42c7.47,0.212,15.118,1.043,18.315,4.237 c2.589,2.585,3.132,8.076,3.132,12.227C319.587,217.591,308.958,233.543,297.282,244.107z"/> <path d="M134.918,104.805c1.015,0.692,2.207,1.058,3.445,1.058h0.014c3.383,0,6.135-2.751,6.135-6.132 c0-0.583-0.081-1.16-0.242-1.717c-3.403-14.907-1.795-26.906,4.779-35.665c7.823-10.423,11.288-23.799,9.268-35.779 c-1.785-10.626-7.498-19.458-16.511-25.535c-2.051-1.39-4.875-1.379-6.92,0.028c-2.088,1.438-3.068,3.965-2.493,6.453 c3.676,15.685,0.33,25.63-8.062,40.726c-5.262,9.464-7.411,20.098-6.051,29.943C119.822,89.326,125.583,98.538,134.918,104.805z"/> <path d="M183.61,102.262c0.963,0.66,2.088,1.008,3.255,1.008h0.007c3.189,0,5.785-2.595,5.785-5.785 c0-0.54-0.076-1.076-0.225-1.596c-2.576-11.33-1.375-20.415,3.57-27.003c6.27-8.351,9.045-19.081,7.424-28.702 c-1.441-8.57-6.049-15.694-13.323-20.603c-1.93-1.304-4.543-1.316-6.53,0.038c-1.948,1.35-2.883,3.803-2.333,6.075 c2.797,11.933,0.229,19.536-6.201,31.099c-4.215,7.581-5.934,16.105-4.841,24.001C171.439,89.785,176.09,97.217,183.61,102.262z"/> </g> </g>
</svg>